<?xml version="1.0" encoding="UTF-8"?> <svg xmlns="http://www.w3.org/2000/svg" viewBox="0 0 239.71 274.56"><defs><style>.cls-1{fill:#253746;}.cls-2{fill:#8eb9ca;}.cls-3{fill:#356680;}</style></defs><g id="Layer_2" data-name="Layer 2"><g id="Layer_1-2" data-name="Layer 1"><path class="cls-1" d="M84.93,0V16.8a138,138,0,0,1,138,138h16.8A154.78,154.78,0,0,0,84.93,0Z"></path><path class="cls-1" d="M140.51,154.78a55.45,55.45,0,0,1-16.27,39.31l10.15,10.15A69.94,69.94,0,0,1,96,223.86l1,14.92a84.88,84.88,0,0,0,72.77-84Z"></path><path class="cls-1" d="M15,154.78H0a84.88,84.88,0,0,0,72.76,84l1-14.94A70,70,0,0,1,15,154.78Z"></path><path class="cls-1" d="M120.57,190.42a50.25,50.25,0,0,0,14.77-35.64h-5.69a44.53,44.53,0,0,1-13.11,31.61Z"></path><path class="cls-1" d="M112.84,182.7a39.35,39.35,0,0,0,11.58-27.92H99.58a14.6,14.6,0,0,1-4.29,10.36Z"></path><path class="cls-2" d="M84.9,115.29v24.84h0a14.6,14.6,0,0,1,10.36,4.29l17.57-17.56A39.37,39.37,0,0,0,85,115.29Z"></path><path class="cls-2" d="M84.93,34.09h-.06v76h.06a44.58,44.58,0,0,1,31.62,13.1l41.06-41A102.76,102.76,0,0,1,98.28,256.67l1.24,17.89A120.68,120.68,0,0,0,84.93,34.09Z"></path><path class="cls-2" d="M95,209.49l1,14.37a69.94,69.94,0,0,0,38.44-19.62l-10.15-10.15A55.51,55.51,0,0,1,95,209.49Z"></path><path class="cls-2" d="M116.54,186.39a44.56,44.56,0,0,1-22.29,12.13l.39,5.73a50.36,50.36,0,0,0,25.93-13.83Z"></path><path class="cls-2" d="M95.29,165.14a14.57,14.57,0,0,1-10.36,4.3V178a23.17,23.17,0,0,0,7.8-1.37l1.15,16.64a39.37,39.37,0,0,0,19-10.54Z"></path><path class="cls-2" d="M74.82,209.49a55.64,55.64,0,0,1-29.24-94.05L35.47,105.32A69.95,69.95,0,0,0,73.81,223.84Z"></path><path class="cls-3" d="M77.13,176.6a23.17,23.17,0,0,0,7.8,1.37v-8.53a14.66,14.66,0,1,1,0-29.31V115.29a39.49,39.49,0,0,0-9,78Z"></path><path class="cls-3" d="M75.59,198.52a44.72,44.72,0,0,1,9.34-88.46v-5.69a50.41,50.41,0,0,0-9.74,99.87Z"></path></g></g></svg> 